<svg width="256" height="272" viewBox="0 0 256 272" fill="none" xmlns="http://www.w3.org/2000/svg">
	<path d="M64 0L0 192L256 192L64 0Z" fill="#B70589"/>
	<path d="M0 192V0L192 192H0Z" fill="#FF0099"/>
	<path d="M192 192L256 0V192H192Z" fill="#6E0A78"/>
	<path opacity="0.5" d="M64 0L0 192L256 192L64 0Z" fill="#B70589"/>
	<path d="M256 272V224H246L235 257L224 224H214V272H221V235L233.5 272H236.5L249 235V272H256Z" fill="black"/>
	<path d="M170 266.157C173.389 269.704 178.365 272 184.928 272C195.024 272 200 265.948 200 258.783C200 249.948 193.077 246.817 187.019 244.104C182.476 242.017 178.365 240.209 178.365 236.243C178.365 232.417 181.394 229.913 185.577 229.913C189.327 229.913 192.933 231.165 195.601 233.948L199.062 228.939C195.817 225.809 191.274 224 185.793 224C177.212 224 171.37 229.426 171.37 236.591C171.37 245.009 178.077 247.791 183.918 250.365C188.75 252.522 193.077 254.539 193.077 259.2C193.077 262.887 190.409 266.087 184.856 266.087C180.168 266.087 176.058 263.861 173.534 261.009L170 266.157Z" fill="black"/>
	<path d="M157 272V224H150V272H157Z" fill="black"/>
	<path d="M125.418 272L136 224H128.756L122 260L114 224H108L100 260L93.2443 224H86L96.6534 272H103.756L111 236L118.244 272H125.418Z" fill="black"/>
	<path d="M74 272V266H55V250H73V244H55L55 230H74V224H48V272H74Z" fill="black"/>
	<path d="M34 272V224H27V258L7.28571 224H0V272H7V237L27 272H34Z" fill="black"/>
</svg>
