<svg xmlns="http://www.w3.org/2000/svg" width="400" height="448" viewBox="0 0 400 448" fill="none">
	<path d="M0 320V0L280 320H0Z" fill="#800675"/>
	<path d="M280 320L400 1V320H280Z" fill="#FF0099" fill-opacity="0.4"/>
	<path d="M0 320V0L280 320H0Z" fill="#FF0099" fill-opacity="0.4"/>
	<path d="M120 0L400 320H0L120 0Z" fill="#FF0099" fill-opacity="0.4"/>
	<path d="M3.56626 448C5.59036 448 7.22892 446.412 7.22892 444.45V397.361H7.3253L31.9036 445.291C32.7711 447.159 33.9277 448 35.759 448C38.5542 448 40 446.505 40 443.982V387.55C40 385.588 38.4578 384 36.4337 384C34.4096 384 32.8675 385.588 32.8675 387.55V432.958H32.7711L9.15663 386.803C8.28916 385.028 6.74699 384 4.81928 384C1.83133 384 0 385.775 0 388.765V444.45C0 446.412 1.54217 448 3.56626 448Z" fill="#222222"/>
	<path d="M106.456 441.288H86.968V418.316H103.384C105.304 418.316 106.744 416.804 106.744 415.007C106.744 413.117 105.304 411.604 103.384 411.604H86.968V390.712H106.264C108.184 390.712 109.624 389.294 109.624 387.403C109.624 385.513 108.184 384 106.264 384H82.936C80.632 384 79 385.607 79 387.97V444.03C79 446.393 80.632 448 82.936 448H106.456C108.376 448 109.816 446.487 109.816 444.597C109.816 442.706 108.376 441.288 106.456 441.288Z" fill="#222222"/>
	<path d="M159.547 448C162.427 448 164.539 446.412 165.115 443.515L174.427 396.426H174.619L184.027 443.609C184.603 446.505 186.811 448 189.211 448C191.995 448 194.107 446.318 194.587 443.515L204.667 388.672C205.243 385.495 203.611 384 201.595 384C199.771 384 198.331 385.121 198.043 386.99L189.595 438.47H189.403L179.323 387.644C178.939 385.215 177.019 384 174.715 384C172.507 384 170.779 385.308 170.299 387.644L160.123 438.47H160.027L151.579 387.177C151.291 385.215 149.659 384 147.739 384C145.051 384 143.611 386.523 144.091 389.045L154.075 443.328C154.651 446.318 156.667 448 159.547 448Z" fill="#222222"/>
	<path d="M240 387.831V444.076C240 446.225 241.735 448 243.952 448C246.265 448 248 446.225 248 444.076V387.831C248 385.775 246.265 384 243.952 384C241.735 384 240 385.775 240 387.831Z" fill="#222222"/>
	<path d="M298.784 448C308.096 448 315.776 442.174 315.776 431.795C315.776 414.134 293.504 411.403 293.504 398.202C293.504 393.195 296.864 390.1 302.336 390.1C307.04 390.1 309.536 392.467 311.264 392.467C312.896 392.467 314.24 391.192 314.24 389.371C314.24 388.097 313.184 387.004 311.168 386.094C308.96 385.001 305.504 384 301.952 384C292.064 384 285.632 389.917 285.632 399.021C285.632 415.863 307.904 418.595 307.904 432.706C307.904 438.077 304.448 441.627 298.496 441.627C292.544 441.627 289.568 438.077 287.264 438.077C285.248 438.077 284 439.533 284 441.263C284 442.72 285.056 443.903 286.784 444.996C289.76 446.817 294.464 448 298.784 448Z" fill="#222222"/>
	<path d="M351.46 448C353.437 448 354.92 446.505 354.92 444.636V396.8H355.019L369.156 443.328C369.848 445.664 371.627 447.066 374 447.066C376.175 447.066 377.954 445.758 378.646 443.328L392.882 396.426H392.981V444.636C392.981 446.505 394.464 448 396.441 448C398.418 448 400 446.505 400 444.636V389.139C400 385.869 398.023 384 394.662 384C391.992 384 390.015 385.308 389.323 387.55L374.198 437.723H374.099L358.875 387.644C358.281 385.308 356.106 384 353.437 384C349.977 384 348 385.962 348 389.326V444.636C348 446.505 349.582 448 351.46 448Z" fill="#222222"/>
</svg>
