<?xml version="1.0" encoding="UTF-8"?>
<svg width="100px" height="110px" viewBox="0 0 100 110" version="1.1" xmlns="http://www.w3.org/2000/svg" xmlns:xlink="http://www.w3.org/1999/xlink">
    <!-- Generator: Sketch 42 (36781) - http://www.bohemiancoding.com/sketch -->
    <title>logo</title>
    <desc>Created with Sketch.</desc>
    <defs></defs>
    <g id="Page-1" stroke="none" stroke-width="1" fill="none" fill-rule="evenodd">
        <g id="logo">
            <g>
                <polyline id="Fill-1" fill="#9D2463" points="79 56 30 0 21 24 0 0 0 80 100 80 100 0 79 56"></polyline>
                <polyline id="Fill-3" fill="#6D1E47" points="21 24 70 80 79 56 30 0 21 24"></polyline>
                <polyline id="Fill-4" fill="#6D1E47" points="0 80 21 24 0 0 0 80"></polyline>
                <polyline id="Fill-5" fill="#6D1E47" points="100 0 79 56 100 80 100 0"></polyline>
            </g>
            <g id="type" transform="translate(0.000000, 94.000000)" fill="#0D0E11">
                <path d="M91.261,15.964 C91.028,15.964 90.839,15.891 90.69,15.742 C90.542,15.594 90.466,15.405 90.466,15.172 L90.466,0.784 C90.466,0.603 90.526,0.439 90.642,0.288 C90.757,0.139 90.906,0.05 91.089,0.015 C91.269,-0.017 91.445,0.002 91.609,0.079 C91.773,0.153 91.898,0.272 91.982,0.439 C92.412,1.363 92.834,2.257 93.247,3.116 C93.595,3.862 93.952,4.627 94.316,5.411 C94.678,6.197 94.986,6.846 95.232,7.358 C95.35,7.11 95.487,6.817 95.643,6.479 C95.8,6.14 95.965,5.783 96.14,5.411 C96.316,5.039 96.491,4.654 96.672,4.258 C96.857,3.862 97.037,3.481 97.22,3.116 C97.633,2.257 98.057,1.363 98.487,0.439 C98.568,0.272 98.692,0.153 98.86,0.079 C99.025,0.002 99.198,-0.017 99.38,0.015 C99.562,0.05 99.712,0.139 99.827,0.288 C99.943,0.439 100,0.603 100,0.784 L100,15.172 C100,15.405 99.923,15.594 99.766,15.742 C99.608,15.891 99.42,15.964 99.208,15.964 C98.976,15.964 98.782,15.891 98.636,15.742 C98.487,15.594 98.411,15.405 98.411,15.172 L98.411,4.332 C98.113,4.96 97.82,5.585 97.531,6.204 C97.241,6.824 96.981,7.384 96.748,7.879 C96.467,8.458 96.202,9.019 95.954,9.564 C95.787,9.863 95.548,10.012 95.232,10.012 C94.887,10.012 94.647,9.863 94.514,9.564 C94.267,9.019 94,8.458 93.72,7.879 C93.488,7.384 93.224,6.824 92.924,6.204 C92.627,5.585 92.335,4.96 92.056,4.332 L92.056,15.172 C92.056,15.405 91.978,15.594 91.821,15.742 C91.662,15.891 91.477,15.964 91.261,15.964" id="Fill-9"></path>
                <path d="M77.599,13.924 C78.163,13.513 78.468,12.958 78.519,12.263 C78.551,11.933 78.51,11.611 78.395,11.297 C78.277,10.982 78.103,10.709 77.874,10.476 L73.9,6.41 C73.52,6.03 73.239,5.582 73.057,5.071 C72.874,4.558 72.807,4.035 72.858,3.507 C72.891,2.961 73.04,2.453 73.304,1.982 C73.57,1.51 73.917,1.11 74.348,0.779 C74.779,0.448 75.258,0.221 75.786,0.098 C76.318,-0.028 76.847,-0.032 77.375,0.085 C77.905,0.2 78.386,0.41 78.816,0.716 C79.246,1.024 79.603,1.415 79.886,1.897 C79.999,2.076 80.029,2.275 79.971,2.49 C79.913,2.703 79.783,2.871 79.585,2.986 C79.404,3.102 79.206,3.127 78.992,3.061 C78.774,2.994 78.618,2.871 78.519,2.686 C78.189,2.127 77.698,1.778 77.052,1.646 C76.408,1.514 75.821,1.646 75.292,2.042 C74.779,2.425 74.497,2.944 74.448,3.606 C74.397,4.251 74.594,4.813 75.043,5.293 L79.015,9.387 C79.395,9.782 79.68,10.242 79.873,10.764 C80.061,11.284 80.14,11.825 80.105,12.388 C80.058,12.95 79.901,13.474 79.635,13.962 C79.37,14.449 79.015,14.86 78.568,15.19 C78.121,15.521 77.625,15.754 77.08,15.884 C76.533,16.017 75.987,16.024 75.441,15.909 C74.895,15.794 74.393,15.574 73.938,15.253 C73.482,14.93 73.115,14.53 72.832,14.049 C72.734,13.851 72.714,13.649 72.771,13.441 C72.828,13.233 72.949,13.074 73.13,12.958 C73.314,12.843 73.512,12.812 73.726,12.87 C73.942,12.929 74.107,13.058 74.225,13.254 C74.388,13.538 74.603,13.771 74.87,13.962 C75.133,14.152 75.433,14.281 75.762,14.348 C76.442,14.479 77.052,14.338 77.599,13.924" id="Fill-7"></path>
                <path d="M59.574,15.868 C59.366,15.806 59.209,15.684 59.101,15.493 C58.993,15.309 58.972,15.104 59.037,14.881 L63.274,0.57 C63.339,0.35 63.468,0.189 63.662,0.09 C63.854,-0.008 64.055,-0.025 64.258,0.035 C64.482,0.101 64.646,0.226 64.745,0.411 C64.846,0.595 64.863,0.799 64.798,1.022 L60.56,15.332 C60.496,15.555 60.369,15.714 60.186,15.814 C60,15.915 59.796,15.932 59.574,15.868" id="Fill-11"></path>
                <path d="M50.779,0.436 C50.68,0.251 50.517,0.127 50.294,0.061 C50.088,0 49.889,0.017 49.696,0.117 C49.503,0.215 49.373,0.375 49.31,0.596 L45.839,12.314 C45.576,11.234 43.324,1.943 43.011,0.62 C42.896,0.207 42.642,0 42.243,0 C42.061,0 41.896,0.059 41.749,0.174 C41.745,0.175 41.744,0.177 41.742,0.178 C41.604,0.278 41.505,0.416 41.453,0.596 L37.992,12.277 C37.992,12.277 35.234,0.953 35.155,0.62 C35.109,0.457 35.028,0.328 34.917,0.235 C34.89,0.212 34.804,0.152 34.789,0.145 C34.6,0.034 34.402,0.008 34.194,0.058 C33.969,0.114 33.799,0.231 33.691,0.41 C33.58,0.59 33.554,0.792 33.608,1.018 C33.608,1.018 36.991,14.979 37.092,15.38 C37.12,15.532 37.193,15.658 37.302,15.759 C37.302,15.759 37.321,15.775 37.329,15.782 C37.342,15.792 37.352,15.804 37.365,15.813 C37.367,15.816 37.37,15.818 37.373,15.82 C37.522,15.937 37.703,16 37.918,16 C38.053,16 38.174,15.969 38.291,15.916 C38.311,15.906 38.365,15.876 38.375,15.872 C38.386,15.864 38.398,15.855 38.409,15.847 C38.442,15.826 38.474,15.801 38.503,15.776 C38.508,15.769 38.516,15.765 38.522,15.759 C38.522,15.759 38.68,15.552 38.722,15.407 L42.193,3.689 C43.139,7.724 44.71,14.418 44.949,15.38 C44.977,15.532 45.05,15.658 45.16,15.759 C45.16,15.759 45.193,15.788 45.209,15.802 C45.215,15.805 45.218,15.809 45.222,15.813 C45.223,15.813 45.224,15.814 45.225,15.816 C45.374,15.936 45.558,16 45.776,16 C45.906,16 46.025,15.971 46.139,15.919 C46.16,15.91 46.224,15.875 46.236,15.868 C46.243,15.865 46.25,15.86 46.256,15.855 C46.295,15.83 46.33,15.801 46.363,15.772 C46.368,15.766 46.373,15.759 46.373,15.759 C46.468,15.667 46.537,15.552 46.579,15.407 L50.833,1.047 C50.898,0.826 50.881,0.622 50.779,0.436" id="Fill-10"></path>
                <path d="M18.295,0.803 C18.295,0.568 18.37,0.375 18.522,0.225 C18.674,0.075 18.865,0 19.1,0 L24.118,0 C24.352,0 24.544,0.075 24.695,0.225 C24.846,0.375 24.921,0.568 24.921,0.803 C24.921,1.037 24.846,1.228 24.695,1.379 C24.544,1.529 24.352,1.603 24.118,1.603 L19.886,1.603 L19.886,6.921 L23.617,6.921 C23.851,6.921 24.044,6.995 24.194,7.145 C24.344,7.297 24.419,7.488 24.419,7.72 C24.419,7.957 24.344,8.148 24.194,8.299 C24.044,8.448 23.851,8.525 23.617,8.525 L19.886,8.525 L19.886,14.341 L24.118,14.341 C24.352,14.341 24.544,14.416 24.695,14.567 C24.846,14.715 24.921,14.91 24.921,15.141 C24.921,15.376 24.846,15.569 24.695,15.719 C24.544,15.87 24.352,15.944 24.118,15.944 L19.1,15.944 C18.865,15.944 18.674,15.87 18.522,15.719 C18.37,15.569 18.295,15.376 18.295,15.141 L18.295,0.803" id="Fill-12"></path>
                <path d="M7.918,15.95 C7.737,15.998 7.563,15.981 7.397,15.899 C7.232,15.818 7.107,15.694 7.024,15.526 C6.331,14.103 5.652,12.708 4.99,11.335 C4.708,10.759 4.414,10.153 4.109,9.526 C3.801,8.896 3.499,8.272 3.203,7.653 C2.904,7.033 2.619,6.434 2.345,5.854 C2.072,5.275 1.82,4.746 1.588,4.267 L1.588,15.181 C1.588,15.413 1.514,15.603 1.365,15.751 C1.217,15.899 1.025,15.973 0.794,15.973 C0.562,15.973 0.371,15.899 0.223,15.751 C0.074,15.603 0,15.413 0,15.181 L0,0.792 C0,0.612 0.058,0.447 0.173,0.297 C0.288,0.148 0.438,0.059 0.62,0.023 C0.802,-0.009 0.975,0.01 1.141,0.088 C1.307,0.161 1.432,0.281 1.514,0.447 C2.192,1.869 2.862,3.267 3.524,4.64 C3.806,5.218 4.101,5.82 4.406,6.448 C4.712,7.079 5.014,7.701 5.313,8.322 C5.61,8.942 5.899,9.542 6.18,10.12 C6.462,10.699 6.718,11.228 6.951,11.708 L6.951,0.792 C6.951,0.564 7.024,0.371 7.173,0.224 C7.324,0.075 7.514,0 7.746,0 C7.978,0 8.168,0.075 8.318,0.224 C8.465,0.371 8.54,0.564 8.54,0.792 L8.54,15.181 C8.54,15.363 8.481,15.526 8.366,15.677 C8.249,15.826 8.101,15.916 7.918,15.95" id="Fill-6"></path>
            </g>
        </g>
    </g>
</svg>